<mxfile host="app.diagrams.net" modified="2023-03-12T10:27:32.717Z" agent="5.0 (Macintosh; Intel Mac OS X 10_15_7) AppleWebKit/537.36 (KHTML, like Gecko) Chrome/111.0.0.0 Safari/537.36" etag="ezRr32XO9a86aRXBqNhT" version="21.0.4" type="github">
  <diagram id="lUdaiO9vyYA_eTEFXgUp" name="第 1 页">
    <mxGraphModel dx="1530" dy="-134" grid="1" gridSize="10" guides="1" tooltips="1" connect="1" arrows="1" fold="1" page="1" pageScale="1" pageWidth="827" pageHeight="1169" math="0" shadow="0">
      <root>
        <mxCell id="0" />
        <mxCell id="1" parent="0" />
        <mxCell id="kVqAeBF7xhMF057fxwR8-1" value="" style="shape=image;verticalLabelPosition=bottom;labelBackgroundColor=default;verticalAlign=top;aspect=fixed;imageAspect=0;image=data:image/png,iVBORw0KGgoAAAANSUhEUgAAAOAAAADhCAMAAADmr0l2AAAAq1BMVEX29vYnJjbw8PDy8vInJjf////4+Pju7u75+fklJDT8/PwjIjMAAB4AAB8AABwhIDEYFys6OUcAABgbGS0AABURDyYdHC4UEygKByIaGCw0M0EsKzsgHy/X19mAgIZmZW/i4uSTkpnLy86npqw9PElhYWtSUVxFRFCwsLRxcXmDhIqcnKINCyIGACLDw8eMjJJWVmCsrK8xLkC8u753dn8UEixKSlTZ2twzMz2m9OJvAAAVcklEQVR4nNVdB3viuhJ1k2TLgAHHJSaEFloIJLmkvP//y54KJLEkgw0u7Nm7u9/mJljjGU2zPEfTKga0MbaN4X72+jj/emL4mj++bvZTZANsw6qvXy2IcGg3GSX9bRD5oee6rkV+uV7oR/G2/99oskP4HxUSUungdLOI4yh0dUvXLfL7B+wfThjFwWIy1YDd9HKLA2I8fU5akaefgddtJ89TcjOaXnEh2ABtklaXae48XH+bbMb/kBoxGK77kZtHth8Zo/56CHDTK88FG+8WnTCX6lLw+4sdvn0tQjB9a53deDIsAq/zNgU3vhfBeN0Pi4t3hNcZjUHTMpyAbU+CC4zzL/yXiX2jdgo1MO0FV0nHECQ3aqe2/Xp3weaT4d293qIS8feyBPVxfC6/by5igH1Qivo4ws/9bfkaCJ5bTnnykTS19XpLOoRwFJ9ZsRt2oyBudTqtdpuUFvc+uR8n/W08up2NaKNl99RavW4cDOa0BBx+EwynpDicDz633ZNGHS3RjUhooyTMUAf5YhgEX5PdGABMKz8Cm5bAGAC02yy6cZitxzAZ34SZ2mM9UxNu9DlfjdWFO5EToP2o++JliRjq4xvQ4Qn5wtZyhsDJSo/IuPrKTO68G5CQ26dSvP58is/XsbQyHt1l2PhDghpOaqD2pJbP68yHpITNszxog+EoowIJe2blMpwEniv9pxMvp6BAM4mI+BUrK+T7t0Z7UuDxRXnfo03R0tXG776v+qzgo8GcBqxaqq2zfbugqIN4PG8rBLRas8YktId91T3vFFYfB8Szjqu4X/1hU64UJgrP4L1cXs6BoRdakojuoNRVF1jORyTLd/+Erkg/sPH1KX9md92IkeJ9S17L55t2lT3Z2jqQrbSzbyBng8ZA9uvBiCSb130sXst1s+s1EO/Bo2ygn+vr7zQEH7HkmrskVtQsosqDlhOUIR59Slban9btScGX5EHDZTlJB8RvUsj3nmrutOH9Vtoog7IKVGj2pLsXr2r1M9CWluC8DPPl1jlgf987gpXWHAzxSurBbN9LDFaKEBTMalQhhIkYIvxRqcFYSiIsosL6dqEt7UAnNMu9PBSirFXnLoRYcqHtsnMNPBXDkLusTUB72hFcQDgv24tDsBZjRWtXVyzEH8K1rfa49P0Bx2JSGpaQJ+W7tCEmad3n8tN9iCdCUmp1yr+NSuB34cpOF5UWAn8BDV1w1XVFCvAmuJjuayX1Gt4IN9Jd1lIXQnQnWOhnNaYDkdiRvKvFRiUL9asquMHzffpKUS02CtbCjd1Oi1URuVu59rfQZvPearBRqAnyuUn+GAjJL4P8ygmpJotqqOztqZCmRZtcdkNkg6ZBZDOhkdfl4pmwG+IaYj3eCFGwn2fnE8UZhmlCiDTTzG2kkj/rTqrfhGCUNlG3d3ZfUMUZRCqT/oE0BI28hgYWKRu1HqrfhFKl1D11WoAKAqlZEqE0AxIdmlTE3AIK5mLpTu4fvRRSihjvsgU02J4jmjMNqjWTqBCRr5q5vYw9bacF3FYeCe2dUMu3lI6Nfs0gW434EyobZDZKTdWkWzH31aAmbPi48hYwnqV7656qSoMmMkxE1Eb0pTEBqQpNGiFMWChrxUJaWL2XwUJ24QuP7yDVkUHFgVRdVFimNao4QyuckouXCyt/TCE60VT2BI/7i/gU6laoMZoGYl+HxaXTaHcrHQmrz2WEboUV74+hl2jIpH9Ag5smiXrUOhH5ImK77hL3YE/TW95Jivw0pPZTDNAcpM6kWe0hTVFYCGA6Y86EuE/qLllooNG94EX+XA6OO2kB3fxxgq+q6BUNodkVI2p/JHozuSDTH/2P37rc8eDE9dKH/OLc2ahB9kaBiHS8IBJMRkcs0EH2F03CaChgIa+c5xSakFfkaFvA391CjargBVH/j3CDJOkxwejHsA1naMahWignIEP8lRawfeaBPWTC0WyQxiStuIDjQ0/dsvSk10v0p+NHmezzYIFUOhfE/sgJAfktpaUKNU5o0g1YuB1tD1nulCQO/+uBCQipUzGJwzSu3nQihHT7RMFksowQ0vTQPNxxZlLFwATsDXSiO4JB72FhQ4Tg8UPLTxTBPKeAfPcb3HeS33xVxeSjEeC7RcSiovUcYqU9/YlKZRboQxSEqMGt9KjXYA6N7ROWPkHzEJyoW895FZY/mtT1m8TJJMkgcZiJOr3BE6zALv/gxB7kq0J0VSbthLCoQG80kazYqkySO2smi99w3HcSJ0n0ZMBsdDAomD0XBVxmeVGTJoEsHhjMtVHnycMeky1fegF5LmnSsI0QkRGi0GGbMOkxX+qEFVegQuak99HBnBBVG1kPokGKVZsaoiZaZDn0R1nFikg2ycpxsncT1yLxoZdwFertavtcEAnHNQN0yAa5kGzrcfUZhxXnBdWcRj+NuFqTla2sONeeXGvw3+9tlTd9qZBy0QFiLR5arpgsuWApIvUpBtt2eW83/0GWXfI8zGR9FUPDi4f0Ha22xBYbCMlC4xWLyctntqqf5KKIMfHAdti/NAHiTTHDFurBiktsoTM6SOaY7hTqWA4WZXADLQwmIDSRyS2A7l7ErjhJtywqLrGB8Kx18Ih/VkWTJ9Y6uOiT6T05xAYq6I95CyW25Qwq3YN4KTTv323WvWImxVR3sY+jmZ3JsnIT/fmcQzL6i36lrzagtI/Rox0Pf6xFd11qSEMDMpBY+kAkPNIKqjzdgcUm5csY0ZWVUZCxuKmwbyCkFpUeDRCbau7/aNAqI++Fmemz+FTSiSoUEAzSZ9bCdWn7IVP/ttDIqzLUw2EndTbWquMRLxwL28J/rCxQgFchUTvXsCgDEAhtIOe+qnIC2sJBEset4z0fLN7WyvyovRMeJovPCSq6rPgM2/uqSEAwT+e9NTxbYsAvwiGydjVuxh4Ku93ql3xmMwP4UYj14bwSyxHz0OoO5Aiwp0L+VI0K7W/pMnWdp8Q94ZSc91bB3gAjQYGOe+VbNbkhnSTRW+XvftlOKjrzpwBEXWGugzsoO0BB/CS+fl79AYQfgEfxuHFU9t0Fm1g68Fvfyy/2d0u4ulXyy0X2d198f6lV5+tL4pN6eiSvzOY9hEshxuthFY4sE/a39OpSqa9pgmfpJcKKsonMFUiH/vVteW9Lg5X0PnZYx1HRP4DjO+kdv86JQ12FgGnfJ/Xxln73XfMLhOBVMiKnNSxFQnscSC/PdmsfFwA1+RVeNypjAIw9tqS3B537yk8ZSsD7tmSk3uB6CTFSjP9o1/t6JAPEo3tpIZ537bwwPB7I8pEQ0cDEDhu58iAurzu9ZrNAPHQVA4KiZubm4L2Yz9B92FldkVGBfV9+Od9qNWCgfDmPill4Vufx0nlhNn4VX6ph+mtm0oPGjiGpxgEFX+OLlIjHb4rpbJbXa26uE0ShYoyP5UWz4gNXIFjdq26X09AG5MBT5cQ/d/s1LKZECMZvbcdSjN8pLT+6DHglvu16ELH1gUDuDgPExmtLOfzK6pf59volADPF0BWqiPvOK8pnqBCgSTtjdmB70viUSvAqVU4HdOPH77OD1SDG4+dAMXmH3aa4yYlVR4BX1awptkC/87Y6NRoP0sF483Y3a/bfTchHJRT7X7/wPqP5+xgL0w3pCXwiHBivRt2X7KHO7duQjzaIsiVk4ymTj9kUsfmUHAAANHz/6AVxmD121WpNbmYAPlgpMqw/S3X8YBvfL9fPrxuC1+f1MozjwFfNGPtFp2n/+Rdg2j0xKJTDcUO/GxF0/dAVp6lI98Tb7m5IPppmLdWe8EJET7c2p9mGH+3Sxhi7rbXZ+GBRCWAfXTkG/ogwXt2Me/kLgKR28EXwLpn9WD1sAKfPZQhoPTzutFsjnqBzbB+tdikK1HU/fvjIMz23NthgPFu270vyMXQ8pRO2ejfDAoPB8COSW7XXwg1e1tPTI57rALHN/WJ7IuG6AlbYXq4a5CuiF8bwPYlLZCkQ4cX6TGss4kOszSz1bOXy4AbhxmxGi1R7L5XY5i+YwwkGRIu1i2iDfa9q7R3hviSrmingIBi+tYuJ5zheGPoMYegpuv4nYDnxV51MNxAbH51cQd0icoVRELfj2E++5qPnR4rRfNF7iAmCiPhfeSyzCl5rjeqyUxuv/JMEGke4pM69T0aT2W6IIGA4FvQA2Oh7N5uMev428L08+vSDWT12CsaLc4UR0YkXtbvLx9WQdSpsxcIotQbj1Riunr/CdvRwXpXx17DqLBwS9c3ic9bp+PHL22aKcB52SCYmmm7eohf/3K724k3VRDBEfbGqwf4Lt9uynosxX0ImpbF7/q/TPSmjpb98fVepRAhWp9Vn+a3B69S+aK9QIYeTQcs/af8PrVl17tQ211k9Xobw5f5jehUzq43B9PHhZPJnteZGRckb/k6iLOskX/bbi715fYVjA23/tu2eoGXynWkVElLzzL6zVhR8DHE516UUKY/dz+yuqbudlR8SIX5UPUbicKL7CSqzPKUkqX6QvRlb67Ijom2+KVgEDgj88hN+iM2ZF2TmOdFXubRaeDxQErJQdOMNrCCJguRDN5F4tPgHvltmZxhPI08V/Rjz16NRld8mWnwO/AzOMbfE3j7Yx+obaXmt0Tj/k+rigGC8bmXF/vaqJAnBTDpefJAvSHZV578Q7DKJRVubUiQEs4ynf15/YtfQL8H2pCWebz5KWMYTfDDJyF6Cp8pzew4IvpcZ/I3x9e8ugok6/LntSX3tdRtvMvoH22slzJDP6g5qUt9xHcNE/fzxSh1mPX1v1/78ztbWygM5VntyzelGpX+x3O17/W08mgsrzbR9uS8FKuooEtsfyjl8Xng5w1BVjFqtS+Mhnnbk+G7pwVdV9dg52OZCGRL7l53Xw9+RyiS2H83x45KSRnluLL7EpKCh4qYrJ7ZeDrBRRWXXvWDwEl6o0txW06dzwLvKL4TLwgkx+FCYu3PX/OkcsLtTZP6Fz3WDd8VBV7e1q51jTbG06VbhG7bFgoX0CjuTL6ik2VMUEE9VD8w7RRandDBudBPyaTR+fcoSFnI0YK14uNJqfv8dAXYKX1rgDUP8rvj5/v5m5GOeRnYRubehPW6Lpx0tvfHT7ymQxFTBkJuXz1Ym/iJ3p/nT72mAiewGvSRXNAQb+UeDukir8gMrAnWQ521++C11eC1/0Xj0kwDhm1xb5HnX3l5IP+fqTbPCq2AjSwoW3tNZI8XvW+EFaOJgmqn/zgEPZVcanPakkE5Clwy03Ryd+GmoXitqnZnoAdZSDdEQE3UeKBKSM9OJZN5GOqTiBjcgBzQlLlKScJ3aT4oQ2L6VDFQBKE/V0d2nEw8T8F7K0eJbi/Bp0Hgv7Kk4ezwg1P4n1pLesoKHxWV+mDRhVXe8zKkJePYifLPVKn2YYMmT1e2h9K57kGV00BQ5KUufZGQeyN1KhGJqSJiRl0iUlMSDlsjtSces8+HI5Q7+tyVPmjG+C5rSiwH9XSmPN+n7kIxGiw3ZZxRvJcLeSZ50q1ShRPan+/OrIwS9EBuHTOebQ2Ry9rpyU1s8F7PnSLULIfZEVcfXv6LPZtJzAh1GoWUS2VDZNjqW0ssXxbfhlfht19EHM75I6lQ4uRv7g7LX0entJRNUgGfx2aGK1VKcvqxb3SssiU7DphQAB/Y6OpGcT6inQpZ9LAMi4YSiary5NBZVbci5cKBaQZxJkU2lZwRofGz+VbKoASZpFVr6di9KKJHPOtFlSTazSuJHDkwJVC7GzFclcwrUxIO03pvw3FeavUxKx8Iu1GSckVQ2zpjDuNAQYnx99Ix2aQJJkOdlivOcsaBk3QlyuzpG9Al/RtAz9joTmofth/ITsFwOaH4KMfyeBnu6qsM3QHEmKknSci+KGCDiTgRyvjiDURxolxFBXAKIXwUFuTqjBTxuC4FMVKcxMKd8nDiAGiUjY+Hsg5xBRTtQB9UAkXROd7Z7yuZyZF4CH4KLyTfRmgUDbpcmS6I5dRHznZXKI+PPyFPHGug9PRzZnA6RAmppGhC6R8/feeNAsAt5WDiwKZq12WUKpGw6LD1Jej1KnBQzmgy+FnsvKNhbnKhzIY8FjIjvyKpIGfHMI/kYPHxXrcCLB2tgWZQyMHEo+1ywYpkvW4sYBK2XU5PMTOPA8slrHyYi/Y+xdDXWoLJX0aBH6ZKcQU93kp4TzjGj1WNopRsbrqsK8scvHUmBeJrJ1Mft8jKi1itxvKKpDdykl9BGNbFPvffff+FYOzDeSMQjahdDyV8Q44lDBpeI+ROjCF1VuYCcDpPmgdAAH0R5Cd+FlMAo6f6YoTR0WXqGwRlyICdSYyJxT2Jym2zGLpkDoTpiW83Udse3LhMmJvGjRzWJtA6u/rsDD/RuiP1pMA417ks4T1wTDpODrYdlgpR+kPo7+8k7iHbwJN3DRrOHQiFxZGDn5TizYxq7GWUVSzghK4Ua2XKHtI9bEGWrYwUYrVIMMHF6vcEfZ3Jkm5Qy1eNAZEanSak9kflDJk/dknHoQjQDw+BMXsYhn2froomvPYwGfxX4Q1sm8lY4Pv26gXhk40nXDxs5I9ltzjINxqnHiIxNjZdhjDuSrQo76a3mfbFNCI30K7QW86Gs9cVrA6o+ZpkaN4fKa4NMMIJmxjLHyCM1xg7FKjMWpLDoLCPWk7CnQm+YmS5rgJmsQURVSLNWo/5BwiKM1KpM2jIw0A9FlMQRw5nIyRZMC9g24YH5jmbj9FO0Q3xoHAdKROY02YLS99wUGp/cW4p5GslD2Tfz/MSEvN1wA9JR8OSQVy+GtCoskPYy9nqoJeli+OB7yI8jrr1bEU5jDXJk8NRJtSopHviUY3YsPOjmQYI2G0yE2Kc0vvV+wTrjme0rqW6nnRkpEY14iUHNszl/mQW+qqz/C01hpkKwsiW1el+4kXouH860QLBALH3/jCUf43/c7jP5s8CvqentFqkJNfyUCv9WpYyQVUNgKNUdx9agEBy3NTDgVQYoMpn0DU10ov4tnkvLDUOYxLMdatO0E3V6/7CFys/Igp22EoiDqyFqqwtYcJnRRpukZyQfi91/FGLQ8181YaJk8P5vCyi40XCtCTNB47oo8KqB2H5xF5qwK+Pvf9mJ0uec6dov0Qbpcj6ojyKuCkAkFLe6lv6n3r25/LoYQHrCtaVrg5R8jvdPRwkiYE8YtKOl8+9DI+rfBRilRkU7T0IcVJ2g+acgHEjzH7U0S9vdP52JarQTkSrq+0NGiPEj4s29olQcePbnWeDnB9AgnP+k2/G68aHB1wN//OgwWHBqi+c+HZ3kdvuv9U4prQYQb/qRq1uuf/dx/Mr3ZDlwvyaX8UHdHvB4s9Ct5esQEwX+H/OFTD1MtPuOAAAAAElFTkSuQmCC;" parent="1" vertex="1">
          <mxGeometry x="660.4300000000001" y="2078.75" width="189.15" height="190" as="geometry" />
        </mxCell>
        <mxCell id="kVqAeBF7xhMF057fxwR8-8" value="" style="edgeStyle=orthogonalEdgeStyle;rounded=0;hachureGap=4;orthogonalLoop=1;jettySize=auto;html=1;fontFamily=Architects Daughter;fontSource=https%3A%2F%2Ffonts.googleapis.com%2Fcss%3Ffamily%3DArchitects%2BDaughter;fontSize=16;fillColor=#f8cecc;strokeColor=#333333;strokeWidth=1;sketch=1;curveFitting=1;jiggle=2;" parent="1" source="kVqAeBF7xhMF057fxwR8-2" target="kVqAeBF7xhMF057fxwR8-3" edge="1">
          <mxGeometry relative="1" as="geometry">
            <mxPoint x="575" y="2173.75" as="targetPoint" />
          </mxGeometry>
        </mxCell>
        <mxCell id="kVqAeBF7xhMF057fxwR8-10" value="" style="edgeStyle=orthogonalEdgeStyle;rounded=0;sketch=1;hachureGap=4;jiggle=2;curveFitting=1;orthogonalLoop=1;jettySize=auto;html=1;fontFamily=Architects Daughter;fontSource=https%3A%2F%2Ffonts.googleapis.com%2Fcss%3Ffamily%3DArchitects%2BDaughter;fontSize=16;strokeColor=#4D4D4D;" parent="1" source="kVqAeBF7xhMF057fxwR8-2" target="kVqAeBF7xhMF057fxwR8-4" edge="1">
          <mxGeometry relative="1" as="geometry">
            <mxPoint x="975" y="2173.8" as="targetPoint" />
          </mxGeometry>
        </mxCell>
        <mxCell id="kVqAeBF7xhMF057fxwR8-2" value="&lt;p style=&quot;line-height: 140%; font-size: 30px;&quot;&gt;&lt;br&gt;&lt;/p&gt;" style="rounded=1;whiteSpace=wrap;html=1;shadow=0;glass=0;sketch=1;fillWeight=2;hachureGap=12;hachureAngle=-41;jiggle=1;curveFitting=1;simplification=0;strokeColor=none;strokeWidth=2;fontFamily=Architects Daughter;fontSource=https%3A%2F%2Ffonts.googleapis.com%2Fcss%3Ffamily%3DArchitects%2BDaughter;fontSize=30;fontColor=#666666;fillColor=#95D2F5;" parent="1" vertex="1">
          <mxGeometry x="655.0000000000001" y="2070" width="200" height="207.5" as="geometry" />
        </mxCell>
        <mxCell id="kVqAeBF7xhMF057fxwR8-13" style="edgeStyle=orthogonalEdgeStyle;rounded=0;sketch=1;hachureGap=4;jiggle=2;curveFitting=1;orthogonalLoop=1;jettySize=auto;html=1;fontFamily=Architects Daughter;fontSource=https%3A%2F%2Ffonts.googleapis.com%2Fcss%3Ffamily%3DArchitects%2BDaughter;fontSize=16;entryX=0.288;entryY=-0.005;entryDx=0;entryDy=0;strokeColor=#FF3333;entryPerimeter=0;" parent="1" source="kVqAeBF7xhMF057fxwR8-3" target="kVqAeBF7xhMF057fxwR8-6" edge="1">
          <mxGeometry relative="1" as="geometry">
            <Array as="points">
              <mxPoint x="455" y="2810" />
              <mxPoint x="645" y="2810" />
            </Array>
          </mxGeometry>
        </mxCell>
        <mxCell id="kVqAeBF7xhMF057fxwR8-3" value="&lt;p style=&quot;line-height: 70%; font-size: 30px;&quot;&gt;&lt;font color=&quot;#333333&quot;&gt;&lt;b&gt;uad-ghost&lt;/b&gt;&lt;/font&gt;&lt;/p&gt;" style="rounded=1;whiteSpace=wrap;html=1;shadow=0;glass=0;sketch=1;fillWeight=2;hachureGap=12;hachureAngle=-41;jiggle=1;curveFitting=1;simplification=0;strokeColor=#666666;strokeWidth=2;fontFamily=Architects Daughter;fontSource=https%3A%2F%2Ffonts.googleapis.com%2Fcss%3Ffamily%3DArchitects%2BDaughter;fontSize=30;fontColor=#666666;fillColor=#95D2F5;" parent="1" vertex="1">
          <mxGeometry x="290" y="2540" width="330" height="140" as="geometry" />
        </mxCell>
        <mxCell id="kVqAeBF7xhMF057fxwR8-4" value="&lt;p style=&quot;line-height: 140%; font-size: 30px;&quot;&gt;&lt;font color=&quot;#333333&quot;&gt;&lt;b&gt;uad-neck&lt;/b&gt;&lt;/font&gt;&lt;/p&gt;" style="rounded=1;whiteSpace=wrap;html=1;shadow=0;glass=0;sketch=1;fillWeight=2;hachureGap=12;hachureAngle=-41;jiggle=1;curveFitting=1;simplification=0;strokeColor=#666666;strokeWidth=2;fontFamily=Architects Daughter;fontSource=https%3A%2F%2Ffonts.googleapis.com%2Fcss%3Ffamily%3DArchitects%2BDaughter;fontSize=30;fontColor=#666666;fillColor=#95D2F5;" parent="1" vertex="1">
          <mxGeometry x="867.63" y="2540" width="330" height="140" as="geometry" />
        </mxCell>
        <mxCell id="kVqAeBF7xhMF057fxwR8-6" value="&lt;p style=&quot;line-height: 140%; font-size: 30px;&quot;&gt;&lt;font color=&quot;#333333&quot;&gt;&lt;b&gt;csd-content&lt;/b&gt;&lt;/font&gt;&lt;/p&gt;" style="rounded=1;whiteSpace=wrap;html=1;shadow=0;glass=0;sketch=1;fillWeight=2;hachureGap=12;hachureAngle=-41;jiggle=1;curveFitting=1;simplification=0;strokeColor=#666666;strokeWidth=2;fontFamily=Architects Daughter;fontSource=https%3A%2F%2Ffonts.googleapis.com%2Fcss%3Ffamily%3DArchitects%2BDaughter;fontSize=30;fontColor=#666666;fillColor=#95D2F5;" parent="1" vertex="1">
          <mxGeometry x="550" y="2980" width="330" height="140" as="geometry" />
        </mxCell>
        <mxCell id="kVqAeBF7xhMF057fxwR8-11" value="用户" style="text;html=1;strokeColor=none;fillColor=none;align=center;verticalAlign=middle;whiteSpace=wrap;rounded=0;sketch=1;fontSize=30;fontColor=#FF66FF;" parent="1" vertex="1">
          <mxGeometry x="667.2900000000001" y="2210" width="175.42" height="50" as="geometry" />
        </mxCell>
        <mxCell id="kVqAeBF7xhMF057fxwR8-12" value="写请求" style="text;html=1;strokeColor=none;fillColor=none;align=center;verticalAlign=middle;whiteSpace=wrap;rounded=0;sketch=1;fontSize=30;fontColor=#4D4D4D;" parent="1" vertex="1">
          <mxGeometry x="310.0000000000001" y="2360" width="175.42" height="50" as="geometry" />
        </mxCell>
        <mxCell id="kVqAeBF7xhMF057fxwR8-18" value="同步写请求&lt;br&gt;（双写）" style="text;html=1;strokeColor=none;fillColor=none;align=center;verticalAlign=middle;whiteSpace=wrap;rounded=0;sketch=1;fontSize=30;fontColor=#FF6666;" parent="1" vertex="1">
          <mxGeometry x="470.0000000000001" y="2830" width="175.42" height="50" as="geometry" />
        </mxCell>
        <mxCell id="kVqAeBF7xhMF057fxwR8-19" value="返回结果" style="text;html=1;strokeColor=none;fillColor=none;align=center;verticalAlign=middle;whiteSpace=wrap;rounded=0;sketch=1;fontSize=30;fontColor=#4D4D4D;" parent="1" vertex="1">
          <mxGeometry x="460.0000000000001" y="2360" width="175.42" height="50" as="geometry" />
        </mxCell>
        <mxCell id="kVqAeBF7xhMF057fxwR8-20" value="" style="edgeStyle=orthogonalEdgeStyle;rounded=0;sketch=1;hachureGap=4;jiggle=2;curveFitting=1;orthogonalLoop=1;jettySize=auto;html=1;fontFamily=Architects Daughter;fontSource=https%3A%2F%2Ffonts.googleapis.com%2Fcss%3Ffamily%3DArchitects%2BDaughter;fontSize=16;entryX=-0.018;entryY=0.62;entryDx=0;entryDy=0;entryPerimeter=0;fontColor=#FF6666;strokeColor=#333333;" parent="1" target="kVqAeBF7xhMF057fxwR8-2" edge="1">
          <mxGeometry relative="1" as="geometry">
            <mxPoint x="479" y="2540" as="sourcePoint" />
            <mxPoint x="349" y="2251" as="targetPoint" />
            <Array as="points">
              <mxPoint x="480" y="2540" />
              <mxPoint x="480" y="2199" />
            </Array>
          </mxGeometry>
        </mxCell>
        <mxCell id="kVqAeBF7xhMF057fxwR8-22" value="" style="edgeStyle=orthogonalEdgeStyle;rounded=0;sketch=1;hachureGap=4;jiggle=2;curveFitting=1;orthogonalLoop=1;jettySize=auto;html=1;fontFamily=Architects Daughter;fontSource=https%3A%2F%2Ffonts.googleapis.com%2Fcss%3Ffamily%3DArchitects%2BDaughter;fontSize=16;strokeColor=#4D4D4D;startArrow=none;startFill=0;endArrow=classic;endFill=1;exitX=0.419;exitY=-0.005;exitDx=0;exitDy=0;exitPerimeter=0;fontColor=#4D4D4D;" parent="1" source="kVqAeBF7xhMF057fxwR8-4" edge="1">
          <mxGeometry relative="1" as="geometry">
            <mxPoint x="1015" y="2530" as="sourcePoint" />
            <mxPoint x="855" y="2190" as="targetPoint" />
            <Array as="points">
              <mxPoint x="1006" y="2530" />
              <mxPoint x="1005" y="2190" />
            </Array>
          </mxGeometry>
        </mxCell>
        <mxCell id="kVqAeBF7xhMF057fxwR8-24" value="旧计数应用" style="text;html=1;strokeColor=none;fillColor=none;align=center;verticalAlign=middle;whiteSpace=wrap;rounded=0;sketch=1;fontSize=30;fontColor=#FF66FF;" parent="1" vertex="1">
          <mxGeometry x="367.28999999999996" y="2630" width="175.42" height="50" as="geometry" />
        </mxCell>
        <mxCell id="kVqAeBF7xhMF057fxwR8-25" value="旧收藏应用" style="text;html=1;strokeColor=none;fillColor=none;align=center;verticalAlign=middle;whiteSpace=wrap;rounded=0;sketch=1;fontSize=30;fontColor=#FF66FF;" parent="1" vertex="1">
          <mxGeometry x="944.92" y="2630" width="175.42" height="50" as="geometry" />
        </mxCell>
        <mxCell id="kVqAeBF7xhMF057fxwR8-26" value="社区内容业务应用" style="text;html=1;strokeColor=none;fillColor=none;align=center;verticalAlign=middle;whiteSpace=wrap;rounded=0;sketch=1;fontSize=30;fontColor=#FF66FF;" parent="1" vertex="1">
          <mxGeometry x="590" y="3070" width="250" height="50" as="geometry" />
        </mxCell>
        <mxCell id="kVqAeBF7xhMF057fxwR8-27" style="edgeStyle=orthogonalEdgeStyle;rounded=0;sketch=1;hachureGap=4;jiggle=2;curveFitting=1;orthogonalLoop=1;jettySize=auto;html=1;fontFamily=Architects Daughter;fontSource=https%3A%2F%2Ffonts.googleapis.com%2Fcss%3Ffamily%3DArchitects%2BDaughter;fontSize=16;exitX=0.548;exitY=1.107;exitDx=0;exitDy=0;exitPerimeter=0;strokeColor=#FF3333;" parent="1" source="kVqAeBF7xhMF057fxwR8-25" target="kVqAeBF7xhMF057fxwR8-6" edge="1">
          <mxGeometry relative="1" as="geometry">
            <mxPoint x="667.29" y="2685" as="sourcePoint" />
            <mxPoint x="820" y="2970" as="targetPoint" />
            <Array as="points">
              <mxPoint x="1040" y="2685" />
              <mxPoint x="1040" y="2810" />
              <mxPoint x="800" y="2810" />
            </Array>
          </mxGeometry>
        </mxCell>
        <mxCell id="kVqAeBF7xhMF057fxwR8-29" value="写请求" style="text;html=1;strokeColor=none;fillColor=none;align=center;verticalAlign=middle;whiteSpace=wrap;rounded=0;sketch=1;fontSize=30;fontColor=#333333;" parent="1" vertex="1">
          <mxGeometry x="1000" y="2340" width="175.42" height="90" as="geometry" />
        </mxCell>
        <mxCell id="kVqAeBF7xhMF057fxwR8-30" value="返回结果" style="text;html=1;strokeColor=none;fillColor=none;align=center;verticalAlign=middle;whiteSpace=wrap;rounded=0;sketch=1;fontSize=30;fontColor=#4D4D4D;" parent="1" vertex="1">
          <mxGeometry x="849.58" y="2360" width="175.42" height="50" as="geometry" />
        </mxCell>
        <mxCell id="kVqAeBF7xhMF057fxwR8-31" value="同步写请求&lt;br&gt;（双写）" style="text;html=1;strokeColor=none;fillColor=none;align=center;verticalAlign=middle;whiteSpace=wrap;rounded=0;sketch=1;fontSize=30;fontColor=#FF6666;" parent="1" vertex="1">
          <mxGeometry x="827.0000000000001" y="2830" width="175.42" height="50" as="geometry" />
        </mxCell>
        <mxCell id="5s3jWL2b2oRQl5JCYH-E-1" value="&lt;p style=&quot;line-height: 140%; font-size: 30px;&quot;&gt;&lt;font color=&quot;#333333&quot;&gt;&lt;b&gt;csd-counter&lt;/b&gt;&lt;/font&gt;&lt;/p&gt;" style="rounded=1;whiteSpace=wrap;html=1;shadow=0;glass=0;sketch=1;fillWeight=2;hachureGap=12;hachureAngle=-41;jiggle=1;curveFitting=1;simplification=0;strokeColor=#666666;strokeWidth=2;fontFamily=Architects Daughter;fontSource=https%3A%2F%2Ffonts.googleapis.com%2Fcss%3Ffamily%3DArchitects%2BDaughter;fontSize=30;fontColor=#666666;fillColor=#95D2F5;" vertex="1" parent="1">
          <mxGeometry x="542.71" y="3280" width="330" height="140" as="geometry" />
        </mxCell>
        <mxCell id="5s3jWL2b2oRQl5JCYH-E-2" value="" style="edgeStyle=orthogonalEdgeStyle;rounded=0;sketch=1;hachureGap=4;jiggle=2;curveFitting=1;orthogonalLoop=1;jettySize=auto;html=1;fontFamily=Architects Daughter;fontSource=https%3A%2F%2Ffonts.googleapis.com%2Fcss%3Ffamily%3DArchitects%2BDaughter;fontSize=16;strokeColor=#FF0000;" edge="1" parent="1">
          <mxGeometry relative="1" as="geometry">
            <mxPoint x="690" y="3120" as="sourcePoint" />
            <mxPoint x="690" y="3280" as="targetPoint" />
            <Array as="points">
              <mxPoint x="691" y="3130" />
              <mxPoint x="690" y="3130" />
            </Array>
          </mxGeometry>
        </mxCell>
        <mxCell id="5s3jWL2b2oRQl5JCYH-E-3" value="" style="edgeStyle=orthogonalEdgeStyle;rounded=0;sketch=1;hachureGap=4;jiggle=2;curveFitting=1;orthogonalLoop=1;jettySize=auto;html=1;fontFamily=Architects Daughter;fontSource=https%3A%2F%2Ffonts.googleapis.com%2Fcss%3Ffamily%3DArchitects%2BDaughter;fontSize=16;endArrow=none;endFill=0;startArrow=classic;startFill=1;strokeColor=#FF3333;" edge="1" parent="1">
          <mxGeometry relative="1" as="geometry">
            <mxPoint x="714.5" y="3120" as="sourcePoint" />
            <mxPoint x="715" y="3280" as="targetPoint" />
            <Array as="points">
              <mxPoint x="714.5" y="3120" />
            </Array>
          </mxGeometry>
        </mxCell>
        <mxCell id="5s3jWL2b2oRQl5JCYH-E-4" value="统一计数中心" style="text;html=1;strokeColor=none;fillColor=none;align=center;verticalAlign=middle;whiteSpace=wrap;rounded=0;sketch=1;fontSize=30;fontColor=#FF66FF;" vertex="1" parent="1">
          <mxGeometry x="602.71" y="3370" width="210" height="50" as="geometry" />
        </mxCell>
        <mxCell id="5s3jWL2b2oRQl5JCYH-E-5" value="&lt;font color=&quot;#ff6666&quot;&gt;计数&lt;br&gt;请求&lt;/font&gt;" style="text;html=1;strokeColor=none;fillColor=none;align=center;verticalAlign=middle;whiteSpace=wrap;rounded=0;sketch=1;fontSize=30;fontColor=#4D4D4D;" vertex="1" parent="1">
          <mxGeometry x="560.0000000000001" y="3180" width="175.42" height="50" as="geometry" />
        </mxCell>
        <mxCell id="5s3jWL2b2oRQl5JCYH-E-6" value="&lt;font color=&quot;#ff6666&quot;&gt;返回&lt;br&gt;结果&lt;/font&gt;" style="text;html=1;strokeColor=none;fillColor=none;align=center;verticalAlign=middle;whiteSpace=wrap;rounded=0;sketch=1;fontSize=30;fontColor=#4D4D4D;" vertex="1" parent="1">
          <mxGeometry x="667.3000000000001" y="3180" width="175.42" height="50" as="geometry" />
        </mxCell>
      </root>
    </mxGraphModel>
  </diagram>
</mxfile>
